{"title":"Bridal Wave 2015 720p BRRip","uid":12540256,"size":2726121659,"categoryP":"video","categoryS":"hd___movies","magnet":"?xt=urn:btih:98e9dcc2549c4724a17cf8a8e2c97832ecfa640b&amp;dn=Bridal+Wave+2015+720p+BRRip&amp;tr=udp%3A%2F%2Ftracker.leechers-paradise.org%3A6969&amp;tr=udp%3A%2F%2Fzer0day.ch%3A1337&amp;tr=udp%3A%2F%2Fopen.demonii.com%3A1337&amp;tr=udp%3A%2F%2Ftracker.coppersurfer.tk%3A6969&amp;tr=udp%3A%2F%2Fexodus.desync.com%3A6969","seeders":0,"leechers":0,"uploader":"Joker__TPB","files":4,"time":1444389515,"description":"=================================================================\r\nNurse Georgie Dwyer is all set to marry her practically perfect fiancé| Dr. Phillip Hamilton. That is| until a nagging mom and underwhelmed future mother-in-law\r\ndrive her to a chance encounter with a handsome stranger that leaves her questioning what her heart truly feels.\r\n=================================================================\r\nscreens: \nhttp://extraimago.com/image/3nJ \nhttp://extraimago.com/image/3nK \nhttp://extraimago.com/image/3nZ \nhttp://extraimago.com/image/3n4\r\n=================================================================\r\nmedia info:\r\nVideo\r\nID                                       : 0\r\nFormat                                   : MPEG-4 Visual\r\nFormat profile                           :   \r\nFormat settings, BVOP                    : No\r\nFormat settings, QPel                    : No\r\nFormat settings, GMC                     : No warppoints\r\nFormat settings, Matrix                  : Default (H.263)\r\nCodec ID                                 : XVID\r\nCodec ID/Hint                            : XviD\r\nDuration                                 : 1h 28mn\r\nBit rate                                 : 3 473 Kbps\r\nWidth                                    : 1 280 pixels\r\nHeight                                   : 720 pixels\r\nDisplay aspect ratio                     : 16:9\r\nFrame rate                               : 23.976 fps\r\nColor space                              : YUV\r\nChroma subsampling                       : 4:2:0\r\nBit depth                                : 8 bits\r\nScan type                                : Progressive\r\nCompression mode                         : Lossy\r\nBits/(Pixel*Frame)                       : 0.157\r\nStream size                              : 2.14 GiB (84%)\r\nWriting library                          : Lavc56.60.100\r\n\r\nAudio\r\nID                                       : 1\r\nFormat                                   : AC-3\r\nFormat/Info                              : Audio Coding 3\r\nMode extension                           : CM (complete main)\r\nFormat settings, Endianness              : Big\r\nCodec ID                                 : 2000\r\nDuration                                 : 1h 28mn\r\nBit rate mode                            : Constant\r\nBit rate                                 : 640 Kbps\r\nChannel(s)                               : 6 channels\r\nChannel positions                        : Front: L C R, Side: L R, LFE\r\nSampling rate                            : 48.0 KHz\r\nCompression mode                         : Lossy\r\nStream size                              : 403 MiB (16%)\r\nAlignment                                : Aligned on interleaves\r\nInterleave, duration                     : 42 ms (1.00 video frame)\r\nInterleave, preload duration             : 512 ms\r\n=================================================================","torrent":{"xt":"urn:btih:98e9dcc2549c4724a17cf8a8e2c97832ecfa640b","amp;dn":"Bridal+Wave+2015+720p+BRRip","amp;tr":["udp%3A%2F%2Ftracker.leechers-paradise.org%3A6969","udp%3A%2F%2Fzer0day.ch%3A1337","udp%3A%2F%2Fopen.demonii.com%3A1337","udp%3A%2F%2Ftracker.coppersurfer.tk%3A6969","udp%3A%2F%2Fexodus.desync.com%3A6969"],"infoHash":"98e9dcc2549c4724a17cf8a8e2c97832ecfa640b","infoHashBuffer":{"type":"Buffer","data":[152,233,220,194,84,156,71,36,161,124,248,168,226,201,120,50,236,250,100,11]},"announce":[],"urlList":[]}}